<?xml version="1.0" encoding="UTF-8" standalone="no"?>
<!-- Created with Inkscape (http://www.inkscape.org/) -->

<svg
   xmlns:dc="http://purl.org/dc/elements/1.1/"
   xmlns:cc="http://creativecommons.org/ns#"
   xmlns:rdf="http://www.w3.org/1999/02/22-rdf-syntax-ns#"
   xmlns:svg="http://www.w3.org/2000/svg"
   xmlns="http://www.w3.org/2000/svg"
   xmlns:sodipodi="http://sodipodi.sourceforge.net/DTD/sodipodi-0.dtd"
   xmlns:inkscape="http://www.inkscape.org/namespaces/inkscape"
   width="177.15625"
   height="1220.3438"
   id="svg2"
   version="1.1"
   inkscape:version="0.48.5 r10040"
   sodipodi:docname="arrow.svg">
  <defs
     id="defs4" />
  <sodipodi:namedview
     id="base"
     pagecolor="#ffffff"
     bordercolor="#666666"
     borderopacity="1.0"
     inkscape:pageopacity="0.0"
     inkscape:pageshadow="2"
     inkscape:zoom="0.24748737"
     inkscape:cx="312.15145"
     inkscape:cy="639.52548"
     inkscape:document-units="px"
     inkscape:current-layer="layer1"
     showgrid="false"
     inkscape:window-width="1366"
     inkscape:window-height="721"
     inkscape:window-x="-4"
     inkscape:window-y="-4"
     inkscape:window-maximized="1"
     fit-margin-top="10"
     fit-margin-left="10"
     fit-margin-right="10"
     fit-margin-bottom="10" />
  <metadata
     id="metadata7">
    <rdf:RDF>
      <cc:Work
         rdf:about="">
        <dc:format>image/svg+xml</dc:format>
        <dc:type
           rdf:resource="http://purl.org/dc/dcmitype/StillImage" />
        <dc:title></dc:title>
      </cc:Work>
    </rdf:RDF>
  </metadata>
  <g
     inkscape:label="Layer 1"
     inkscape:groupmode="layer"
     id="layer1"
     transform="translate(-277.40625,-59.5)">
    <path
       style="opacity:0.98000004;fill:#483737;fill-opacity:1;stroke:none"
       d="m 366,69.5 -78.59375,185 70,-15 0,783.0312 -61,94.3126 9.375,11.1562 51.625,-79.7812 0,2.6875 -61,94.3125 9.375,11.1562 51.625,-79.7812 0,2.6875 -61,94.3125 9.375,11.1562 51.625,-79.7812 0,2.6875 -61,94.3125 9.375,11.1562 51.625,-79.7812 0,2.6562 -61,94.3125 9.375,11.1563 51.625,-79.7813 0,2.6875 -61,94.3125 9.375,11.1563 51.625,-79.7813 0,49.4375 17.15625,0 0,-49.4687 51.625,79.8125 9.375,-11.1563 -61,-94.3437 0,-2.6875 51.625,79.8125 9.375,-11.1563 -61,-94.3437 0,-2.6563 51.625,79.8125 9.375,-11.1562 -61,-94.3438 0,-2.6875 51.625,79.8125 9.375,-11.1562 -61,-94.3438 0,-2.6875 51.625,79.8125 9.375,-11.1562 -61,-94.3438 0,-2.6875 51.625,79.8125 9.375,-11.1562 -61,-94.3438 0,-783 70,15 z"
       id="rect2988"
       inkscape:connector-curvature="0"
       sodipodi:nodetypes="cccccccccccccccccccccccccccccccccccccccccccccccccccccccc" />
  </g>
</svg>
